<svg width="15" height="16" viewBox="0 0 15 16" fill="none" xmlns="http://www.w3.org/2000/svg">
<g clip-path="url(#clip0_6_1470)">
<path d="M13.9432 4.51782C13.9364 4.42686 13.898 4.34089 13.8342 4.27415L10.5538 0.675318C10.5154 0.633804 10.4684 0.600619 10.416 0.577906C10.3636 0.555193 10.3068 0.543457 10.2495 0.543457C10.1921 0.543457 10.1354 0.555193 10.083 0.577906C10.0306 0.600619 9.9836 0.633804 9.94515 0.675318L6.66474 4.27415C6.62829 4.31308 6.60008 4.35864 6.58173 4.40823C6.56339 4.45782 6.55527 4.51045 6.55783 4.56311C6.5604 4.61577 6.57361 4.66741 6.5967 4.71508C6.61979 4.76274 6.65231 4.80549 6.69238 4.84087C6.73246 4.87625 6.77931 4.90356 6.83024 4.92124C6.88116 4.93892 6.93517 4.94661 6.98916 4.94388C7.04315 4.94115 7.09605 4.92804 7.14483 4.90532C7.19361 4.8826 7.2373 4.85071 7.27341 4.81148L9.83623 1.99364L9.83623 12.6089C9.36054 12.7752 9.01613 13.2219 9.01613 13.7398C9.01613 14.3976 9.57174 14.9394 10.2463 14.9394C10.9208 14.9394 11.4764 14.3976 11.4764 13.7398C11.4764 13.2219 11.132 12.7752 10.6563 12.6089L10.6563 1.99364L13.2256 4.81148C13.2822 4.87468 13.3579 4.91888 13.4418 4.93781C13.5257 4.95674 13.6135 4.94944 13.6929 4.91695C13.7723 4.88446 13.8392 4.82843 13.8841 4.75679C13.929 4.68515 13.9497 4.60154 13.9432 4.51782ZM10.6563 13.7398C10.6563 13.9654 10.4776 14.1397 10.2463 14.1397C10.015 14.1397 9.83623 13.9654 9.83623 13.7398C9.83623 13.5142 10.015 13.34 10.2463 13.34C10.4776 13.34 10.6563 13.5142 10.6563 13.7398ZM7.79238 10.9157C7.78823 10.8363 7.75988 10.7599 7.71094 10.6962C7.66201 10.6325 7.59472 10.5846 7.51768 10.5584C7.44064 10.5323 7.35734 10.5291 7.27845 10.5493C7.19956 10.5696 7.12865 10.6123 7.07479 10.6721L4.50556 13.4899L4.50556 2.8746C4.98125 2.70831 5.32567 2.2616 5.32567 1.74372C5.32567 1.08593 4.77005 0.54411 4.09551 0.54411C3.42098 0.54411 2.86536 1.08593 2.86536 1.74372C2.86536 2.2616 3.20977 2.70831 3.68546 2.8746L3.68546 13.4899L1.12264 10.6721C1.08653 10.6328 1.04284 10.6009 0.994057 10.5782C0.945277 10.5555 0.892375 10.5424 0.838388 10.5397C0.784402 10.5369 0.730395 10.5446 0.679466 10.5623C0.628537 10.58 0.581689 10.6073 0.541613 10.6427C0.501536 10.6781 0.469019 10.7208 0.44593 10.7685C0.422839 10.8161 0.409632 10.8678 0.407063 10.9204C0.404494 10.9731 0.412617 11.0257 0.430963 11.0753C0.449308 11.1249 0.477517 11.1705 0.513969 11.2094L3.79438 14.8082C3.83283 14.8497 3.87978 14.8829 3.9322 14.9056C3.98463 14.9284 4.04135 14.9401 4.09872 14.9401C4.15608 14.9401 4.2128 14.9284 4.26523 14.9056C4.31765 14.8829 4.3646 14.8497 4.40305 14.8082L7.68346 11.2094C7.72089 11.1701 7.74982 11.1238 7.76853 11.0734C7.78724 11.0229 7.79535 10.9693 7.79238 10.9157ZM4.50556 1.74372C4.50556 1.9693 4.32682 2.14359 4.09551 2.14359C3.86418 2.14359 3.68546 1.9693 3.68546 1.74372C3.68546 1.51814 3.86418 1.34385 4.09551 1.34385C4.32682 1.34385 4.50556 1.51814 4.50556 1.74372Z" fill="black"/>
</g>
<defs>
<clipPath id="clip0_6_1470">
<rect width="14.5953" height="13.7367" fill="white" transform="matrix(0 1 -1 0 14.0391 0.444092)"/>
</clipPath>
</defs>
</svg>
