<svg width="50" height="50" viewBox="0 0 50 50" fill="none" xmlns="http://www.w3.org/2000/svg">
<circle cx="25" cy="25" r="24.5" stroke="#F8F9FA"/>
<path d="M21.288 34C28.832 34 32.96 27.4544 32.96 21.7877C32.96 21.6036 32.96 21.4194 32.952 21.2353C33.752 20.6242 34.448 19.8709 35 19.0171C34.248 19.3603 33.456 19.5947 32.64 19.6951C33.496 19.1594 34.136 18.314 34.44 17.318C33.632 17.8202 32.752 18.1717 31.832 18.3559C30.28 16.6232 27.68 16.5395 26.024 18.1717C24.96 19.218 24.504 20.7833 24.84 22.2732C21.552 22.0974 18.472 20.4652 16.392 17.7867C15.304 19.7454 15.856 22.2565 17.664 23.512C17.008 23.4953 16.376 23.3111 15.8 22.9763C15.8 22.993 15.8 23.0098 15.8 23.0265C15.8 25.0689 17.176 26.8266 19.096 27.2368C18.488 27.4126 17.856 27.4377 17.24 27.3121C17.776 29.0615 19.32 30.2585 21.072 30.292C19.616 31.4889 17.824 32.1334 15.976 32.1334C15.648 32.1334 15.32 32.1083 15 32.0748C16.88 33.3387 19.056 34 21.288 34Z" stroke="#F8F9FA" stroke-width="1.5" stroke-linecap="round" stroke-linejoin="round"/>
</svg>
