<svg width="50" height="50" viewBox="0 0 50 50" fill="none" xmlns="http://www.w3.org/2000/svg">
<circle cx="25" cy="25" r="24.5" stroke="#F8F9FA"/>
<path d="M15.4497 19.9925C15.5791 19.0915 16.3187 18.4151 17.2266 18.3503C19.1639 18.212 22.5364 18 25 18C27.4636 18 30.8361 18.212 32.7734 18.3503C33.6813 18.4151 34.4209 19.0915 34.5503 19.9925C34.749 21.3772 35 23.4356 35 25.0001C35 26.5647 34.749 28.623 34.5503 30.0077C34.4209 30.9087 33.6813 31.5852 32.7733 31.6499C30.836 31.7881 27.4636 32 25 32C22.5364 32 19.164 31.7881 17.2267 31.6499C16.3187 31.5852 15.5791 30.9087 15.4497 30.0077C15.251 28.623 15 26.5647 15 25.0001C15 23.4356 15.251 21.3772 15.4497 19.9925Z" stroke="#F8F9FA" stroke-width="1.5" stroke-linecap="round" stroke-linejoin="round"/>
<path d="M29 25L23 28.4641V21.5359L29 25Z" stroke="#F8F9FA" stroke-width="1.5" stroke-linecap="round" stroke-linejoin="round"/>
<path d="M23 28V21.5L29 25L23 28Z" stroke="#F8F9FA"/>
</svg>
